<svg width="1280" height="720" viewBox="0 0 1280 720" fill="none" xmlns="http://www.w3.org/2000/svg">
  <rect width="1280" height="720" rx="36" fill="#07111F"/>
  <rect x="48" y="48" width="1184" height="624" rx="30" fill="#0C1829"/>
  <rect x="82" y="106" width="1116" height="520" rx="24" fill="#0F2036"/>
  <rect x="82" y="106" width="280" height="520" rx="24" fill="#0A1422"/>
  <rect x="396" y="140" width="768" height="460" rx="22" fill="#10223B"/>
  <rect x="110" y="150" width="130" height="18" rx="9" fill="#E8F5FF"/>
  <rect x="110" y="188" width="208" height="62" rx="16" fill="#122640"/>
  <rect x="110" y="268" width="208" height="62" rx="16" fill="#122640"/>
  <rect x="110" y="348" width="208" height="62" rx="16" fill="#122640"/>
  <rect x="110" y="428" width="208" height="62" rx="16" fill="#122640"/>
  <rect x="430" y="176" width="240" height="22" rx="11" fill="#DDEEFF"/>
  <rect x="430" y="228" width="294" height="72" rx="18" fill="#193252"/>
  <rect x="774" y="330" width="280" height="72" rx="18" fill="#0E789A"/>
  <rect x="430" y="438" width="266" height="72" rx="18" fill="#193252"/>
  <rect x="430" y="548" width="600" height="26" rx="13" fill="#08111F"/>
  <circle cx="1112" cy="174" r="14" fill="#34D399"/>
  <text x="82" y="86" fill="#7DD3FC" font-family="Arial, sans-serif" font-size="24" font-weight="700">Talk-Space</text>
  <text x="228" y="86" fill="#8AA4C8" font-family="Arial, sans-serif" font-size="18">real-time chat interface</text>
</svg>
